<svg width="78" height="89" viewBox="0 0 78 89" fill="none" xmlns="http://www.w3.org/2000/svg">
<path d="M23.094 0.653231C21.2807 1.18656 19.734 2.89323 19.734 4.4399C19.734 5.2399 19.414 5.34657 17.4407 5.0799C13.014 4.4399 9.54733 7.42657 9.174 12.0666C8.96067 14.5732 9.12067 15.3199 10.294 17.0799C11.9473 19.5332 14.5607 20.5999 17.654 20.1199C20.534 19.6399 21.494 20.3332 24.054 24.5999C25.2807 26.6799 26.454 28.3333 26.7207 28.3333C26.934 28.3333 27.4673 27.3733 27.7873 26.1466C28.534 23.7466 30.934 21.3999 32.694 21.3999C33.334 21.3999 34.7207 21.8799 35.734 22.4666L37.6007 23.5866L36.3207 22.4666C33.6007 20.1199 30.614 20.4399 27.894 23.3199L26.1873 25.1866L24.4807 22.1999C23.574 20.5999 22.4007 18.9999 21.9207 18.7332C21.3873 18.4666 19.6807 18.3599 18.0807 18.5199C15.7873 18.7332 14.8273 18.5732 13.4407 17.7199C9.22733 15.0532 9.86734 9.0799 14.6673 6.94657C17.2273 5.82657 18.9873 6.14657 21.2273 8.17324C22.5607 9.45324 22.8273 8.81324 21.6007 7.21324C19.254 4.06657 23.3073 0.0665627 27.3607 1.61323C29.6007 2.46656 30.614 4.49323 30.1873 7.3199C30.0273 8.86657 30.0807 9.61324 30.4007 9.3999C30.7207 9.2399 30.934 8.65324 30.934 8.1199C30.934 5.29323 36.8007 4.2799 39.2007 6.73323C40.5874 8.06657 40.9607 9.8799 40.0007 10.4666C39.734 10.6266 39.4674 11.0532 39.4674 11.4266C39.4674 11.7466 39.8407 11.5332 40.2674 10.9466C41.4407 9.3999 41.2274 7.3199 39.6807 5.8799C38.5607 4.81323 37.7607 4.5999 34.8274 4.54657C31.7873 4.49323 31.254 4.33323 30.7207 3.3199C29.4407 0.97323 26.1873 -0.200104 23.094 0.653231Z" fill="#5D5D5D"/>
<path d="M46.8806 8.01329C44.374 8.81329 43.3606 9.61329 42.6673 11.2666C40.1073 17.5066 51.7873 25.5066 60.6406 23.5333C63.8406 22.84 66.134 20.6 66.0806 18.3066C66.0806 16.9733 66.0273 16.9733 65.4406 18.68C64.4273 21.5066 62.6673 22.52 58.6673 22.52C53.8673 22.5733 49.654 20.92 46.294 17.6666C43.9473 15.3733 43.6806 14.9466 43.8406 13.1333C44.1073 10.1466 45.9206 8.97329 50.5073 8.91996C52.4806 8.86662 54.8806 9.02662 55.734 9.23996L57.334 9.61329L55.6273 8.86662C53.494 7.90662 48.694 7.42662 46.8806 8.01329Z" fill="#5D5D5D"/>
<path d="M46.5074 25.1332C46.0274 25.9865 45.2807 26.1999 43.254 26.1999C41.814 26.1999 40.4273 26.5199 40.1073 26.8399C39.6807 27.3732 40.214 27.5332 42.454 27.5332C44.6407 27.5332 45.5474 27.2665 46.454 26.4132C47.094 25.7732 47.5207 24.9732 47.414 24.6532C47.3074 24.3332 46.8807 24.5465 46.5074 25.1332Z" fill="#5D5D5D"/>
<path d="M32.8005 26.2C32.3738 26.8934 33.0138 27.9067 33.6538 27.5334C34.2938 27.1067 34.2938 25.6667 33.6538 25.6667C33.3338 25.6667 32.9605 25.88 32.8005 26.2Z" fill="#5D5D5D"/>
<path d="M50.0272 26.6268C49.7605 27.9068 49.9205 32.6001 50.2939 32.6001C50.5072 32.6001 50.6672 31.3734 50.6672 29.8801C50.6672 27.4801 50.7739 27.2134 51.4672 27.8001C52.1605 28.3868 52.2139 28.3334 51.9472 27.6401C51.6272 26.7334 50.1872 25.9868 50.0272 26.6268Z" fill="#5D5D5D"/>
<path d="M34.2938 28.5467C31.7872 30.6267 30.6138 31.0534 29.1205 30.4667C27.5738 29.9334 27.2005 30.7867 28.3738 31.9601C29.7605 33.3467 33.0138 32.4401 34.8272 30.0934C35.5205 29.2401 36.3738 28.8667 37.7605 28.8667C39.5738 28.8667 39.6272 28.8134 38.6138 28.0667C37.1738 26.9467 36.0538 27.1067 34.2938 28.5467Z" fill="#5D5D5D"/>
<path d="M54.774 29.4C53.1207 30.68 52.9607 30.7334 52.6407 29.5067C52.4807 29.0267 52.374 29.4 52.3207 30.4134L52.2673 32.28L53.7607 30.84C54.5607 30.0934 55.7873 29.24 56.534 28.92C57.334 28.6 57.5473 28.3867 57.014 28.3867C56.534 28.3334 55.5207 28.8134 54.774 29.4Z" fill="#5D5D5D"/>
<path d="M22.7205 33.1866C21.1205 35.0533 21.2805 37.0266 23.1471 38.68C24.1072 39.48 24.7472 39.5866 27.4672 39.2666C31.4138 38.7866 33.7072 38.7866 36.8005 39.2666C38.7738 39.5866 39.4138 39.4266 40.6405 38.52C41.3872 37.88 42.1872 36.7066 42.4005 35.8533C42.5605 34.9999 43.0938 33.9866 43.5205 33.6133C44.7472 32.5999 44.3738 31.9599 42.9872 32.8666C42.2938 33.3466 41.5472 34.3066 41.3872 34.9999C40.9072 36.9199 38.7738 38.0933 36.5338 37.7199C35.5205 37.5599 33.8138 37.2399 32.7472 37.0799C31.7338 36.8666 29.8138 37.0266 28.5338 37.3999C26.4538 37.9866 25.9738 37.9333 24.8005 37.1866C23.3605 36.2266 23.0405 34.3599 24.0005 32.5466C24.8538 31.0533 24.2672 31.3199 22.7205 33.1866Z" fill="#5D5D5D"/>
<path d="M60.5873 33.0267C60.0006 33.1333 58.3473 34.0933 56.9073 35.0533C54.1339 36.9733 53.3339 37.0267 50.6673 35.4267C49.5473 34.7867 49.6006 34.8933 50.9873 36.1733L52.5873 37.72L50.7739 41.1867C49.6539 43.32 49.4406 44.0133 50.1873 43C51.6806 40.9733 57.334 35.48 59.0406 34.36C59.734 33.88 61.014 33.5067 61.9206 33.56C62.774 33.56 63.4673 33.4 63.4673 33.1867C63.4673 32.8133 62.1873 32.7067 60.5873 33.0267Z" fill="#5D5D5D"/>
<path d="M59.8406 50.52C59.5206 51.0533 59.2006 51.2667 59.2006 51C59.2006 50.68 58.9872 50.7867 58.7206 51.2133C57.7072 52.8133 60.8539 54.2 62.2939 52.76C63.0939 51.96 63.0939 51.2667 62.3473 51.2667C61.9739 51.2667 61.4406 50.8933 61.0673 50.36C60.4806 49.56 60.3739 49.56 59.8406 50.52Z" fill="#5D5D5D"/>
<path d="M5.38723 53.5068C2.08056 55.2134 0.800556 57.1334 0.853889 60.2268C0.907223 65.9868 5.70723 68.7601 13.4939 67.4801L15.4672 67.1068V63.2134V59.2668H12.5339C9.6539 59.2668 9.60056 59.2668 9.60056 60.8668C9.60056 61.8268 9.86723 62.4134 10.2406 62.3601C10.5606 62.2534 10.9872 62.6268 11.0939 63.1068C11.2539 63.8534 10.9339 64.0668 9.6539 64.0668C6.24056 64.0668 4.58723 59.8001 6.93389 57.2401C8.26723 55.8534 10.0272 55.5868 13.4939 56.2801C14.7739 56.5468 14.9339 56.4401 14.9339 55.0001C14.9339 53.0801 14.5072 52.8134 10.7739 52.4934C8.32056 52.2801 7.30723 52.4934 5.38723 53.5068Z" fill="#5D5D5D"/>
<path d="M18.5072 52.7068C17.6538 52.9201 17.6005 53.6134 17.7072 60.2268L17.8672 67.5334H20.2672H22.6672L22.8272 60.1734C22.9338 54.5201 22.8272 52.8668 22.2938 52.8668C21.9205 52.8668 21.1205 52.7601 20.5338 52.6534C19.9472 52.5468 19.0405 52.5468 18.5072 52.7068Z" fill="#5D5D5D"/>
<path d="M25.8139 52.8134C25.7073 52.92 25.6006 56.3867 25.6006 60.44V67.8H28.0006H30.4006V64.0667C30.4006 61.9867 30.5606 60.3334 30.7739 60.3334C30.9873 60.3334 32.7473 61.9867 34.7206 64.0134C37.9739 67.3734 38.4006 67.64 40.3206 67.5867L42.4006 67.48L42.5606 60.3334C42.6139 56.44 42.5073 53.08 42.2939 52.8667C42.0806 52.6534 40.8006 52.6 39.5206 52.76L37.1739 52.9734L37.4939 56.3867C37.6006 58.2534 37.6006 59.8 37.3873 59.8C37.1739 59.8 35.5206 58.2534 33.6539 56.3867C30.8273 53.56 29.9206 52.92 28.1606 52.76C27.0406 52.6534 25.9739 52.6534 25.8139 52.8134Z" fill="#5D5D5D"/>
<path d="M49.3339 52.6533C47.9472 52.9733 45.7072 54.8933 44.9072 56.44C43.8406 58.4133 44.1072 62.8933 45.3872 64.7066C48.4806 69.0267 56.0006 68.7067 59.0406 64.12C61.2806 60.8133 60.2139 55.8533 56.9072 53.6666C55.5739 52.8133 51.2539 52.2266 49.3339 52.6533ZM53.7072 57.0266C55.4139 58.0933 55.4139 62.04 53.7072 63.1066C51.6806 64.3866 49.0672 62.5733 49.0672 59.96C49.0672 57.6666 51.8939 55.8533 53.7072 57.0266Z" fill="#5D5D5D"/>
<path d="M63.5739 53.6667C62.2939 54.7333 61.8672 55.5333 61.8672 56.8667C61.8672 58.6267 62.9339 59.8533 66.7205 62.52L67.9472 63.3733L66.7739 64.0133C65.8672 64.4933 65.2272 64.44 63.7339 63.8533L61.8672 63.0533V64.8667C61.8672 67.0533 62.1872 67.2667 65.8672 67.64C69.2272 68.0133 71.1472 67.0533 72.0539 64.7067C72.8005 62.7333 71.5205 60.3867 68.9072 59C67.8405 58.4133 66.8805 57.5067 66.7739 56.92C66.6139 56.0667 66.8272 55.96 68.3739 56.1733C69.3339 56.3333 70.5605 56.6 71.0405 56.8667C71.8405 57.1867 72.0005 56.9733 71.8939 55.8533C71.7339 53.88 70.3472 52.8133 67.5739 52.4933C65.6539 52.28 65.0139 52.44 63.5739 53.6667Z" fill="#5D5D5D"/>
<path d="M2.02725 73.9867C1.76059 74.2 1.60059 77.6134 1.60059 81.6134V88.8667L4.26725 88.7067L6.93392 88.4934V85.88V83.2667H9.38726C12.3739 83.2667 13.6006 82.6267 14.6673 80.5467C15.7339 78.5734 15.0406 75.9067 13.2273 74.7867C11.8939 73.9867 2.66725 73.2934 2.02725 73.9867ZM10.3473 77.5067C11.1473 78.84 10.1873 80.28 8.32059 80.4934C7.04059 80.6534 6.93392 80.5467 6.93392 78.4667C6.93392 76.3867 7.04059 76.28 8.32059 76.44C9.12059 76.5467 10.0273 77.0267 10.3473 77.5067Z" fill="#5D5D5D"/>
<path d="M17.4405 73.9867C17.2271 74.2 17.0671 77.6134 17.0671 81.6134V88.8667L19.7338 88.7067L22.4538 88.4934L22.2938 81.24L22.1338 73.9334L20.0005 73.7734C18.7738 73.6667 17.6538 73.7734 17.4405 73.9867Z" fill="#5D5D5D"/>
<path d="M24.9073 73.9867C24.6939 74.2001 24.5339 75.0534 24.5339 75.8534C24.5339 77.3467 24.5339 77.3467 28.5339 77.5067L32.5873 77.6667L28.8539 83.0534C26.7739 86.0401 25.1739 88.5468 25.2806 88.6534C25.4406 88.7601 28.9073 88.8134 33.0673 88.7068L40.5873 88.5468L40.4273 87.1067C40.2673 85.7201 40.1073 85.6667 36.6406 85.4001L33.0673 85.1334L35.8939 80.8667C37.4939 78.5201 39.1473 75.9601 39.6806 75.1601L40.5873 73.7734L32.9606 73.7201C28.7473 73.6667 25.1206 73.7734 24.9073 73.9867Z" fill="#5D5D5D"/>
<path d="M42.2406 75.3734L42.4006 77.1334L46.0272 77.2934C48.0006 77.4001 49.6006 77.5601 49.6006 77.7201C49.6006 77.8801 48.2139 80.0668 46.5072 82.6268C44.8006 85.1868 43.2006 87.5868 42.9872 87.9068C42.6672 88.4401 44.2672 88.6001 50.0806 88.6001H57.6006V87.0001V85.4001H54.1339C52.2139 85.4001 50.6672 85.2934 50.6672 85.1334C50.6672 84.9734 52.1072 82.6801 53.8672 80.0134C55.6806 77.4001 57.2272 74.8934 57.3872 74.4668C57.6539 73.7734 56.5872 73.6668 49.8672 73.6668H42.0806L42.2406 75.3734Z" fill="#5D5D5D"/>
<path d="M65.2272 74.1466C64.9072 74.3066 64.0006 76.0133 63.2006 77.9333C62.4005 79.8533 61.2272 82.4666 60.5339 83.7999C59.8939 85.1333 59.1472 86.7333 58.9872 87.3733C58.6139 88.5466 58.7739 88.5999 61.0139 88.5999C62.9339 88.5999 63.4672 88.3866 63.7339 87.5333C64.0539 86.6266 64.5339 86.4666 67.7339 86.4666C70.8806 86.4666 71.4672 86.6266 71.7339 87.4799C71.9472 88.2799 72.6406 88.5466 74.6672 88.7066C76.3206 88.8133 77.2806 88.6533 77.1206 88.3333C75.5206 84.7066 70.7739 74.4132 70.5606 74.1999C70.2406 73.8266 65.8139 73.7199 65.2272 74.1466ZM69.0139 80.7599C69.4939 81.9866 69.8672 83.2133 69.8672 83.4266C69.8672 83.6399 68.9072 83.7999 67.7339 83.7999C66.5606 83.7999 65.6006 83.6399 65.6006 83.4266C65.6006 82.5733 67.3606 78.4666 67.7339 78.4666C67.9472 78.4666 68.5339 79.4799 69.0139 80.7599Z" fill="#5D5D5D"/>
</svg>
