<svg width="108" height="62" viewBox="0 0 108 62" fill="none" xmlns="http://www.w3.org/2000/svg">
<path d="M34.1601 2.65326C33.0401 3.82659 31.9201 5.53326 31.7601 6.38659C31.5468 7.50659 31.2801 7.82659 30.9068 7.45326C30.2668 6.81326 26.8534 6.70659 25.9468 7.29326C25.0401 7.87992 24.1334 9.85326 24.1334 11.3466C24.1334 12.6799 23.9734 12.8933 21.4668 14.8133C20.2934 15.7199 20.1868 16.1466 20.2934 18.8666C20.4534 23.2933 20.2401 23.8266 17.7868 23.7199C15.2801 23.6666 13.0934 25.0533 12.1334 27.3466C11.6001 28.5733 10.6401 29.3733 8.72009 30.2799C4.29342 32.4133 0.666748 36.9999 0.666748 40.6266C0.666748 43.0266 3.22675 47.08 6.05342 49.1066C10.0001 52.04 14.7468 53.3733 20.9334 53.3733C23.7068 53.3733 27.1734 53.1066 28.6668 52.7333C33.8934 51.56 39.1734 48.0933 40.9868 44.6266C41.9468 42.7599 41.9468 38.4933 40.9334 36.5733C40.1868 35.1333 40.2401 34.9733 41.6268 33.7466C42.4268 33.0533 43.6535 32.3066 44.4001 32.1466C47.4401 31.4533 48.8268 30.5999 49.5735 28.9466C50.6935 26.6533 50.1601 24.7866 48.0268 23.7733L46.2668 22.8666H49.3601C53.0401 22.8666 54.2135 22.3333 55.3335 20.1999C56.5068 17.9599 56.3468 16.3066 54.8001 14.8666L53.4668 13.5866L54.7468 12.2533C57.7335 8.99992 57.7335 5.95992 54.8001 2.81326C53.3068 1.21325 52.7735 0.99992 50.4268 0.99992C48.4535 0.99992 47.2268 1.37325 45.7335 2.38659C43.9734 3.55992 43.6535 3.61325 43.2268 2.91992C42.2134 1.05325 41.0401 0.466587 38.6934 0.466587C36.5068 0.466587 35.9734 0.733253 34.1601 2.65326ZM40.9334 3.39992C41.6801 4.09325 42.2668 4.94659 42.2668 5.26659C42.2668 6.22659 44.1334 5.85326 46.0001 4.46659C49.4668 1.90659 52.6668 2.17326 54.2668 5.26659C55.4935 7.61326 55.2268 8.94659 53.2001 10.8133C50.9068 12.9466 50.6935 14.9199 52.6668 15.8266C53.5735 16.2533 54.0001 16.8933 54.0001 17.7466C54.0001 19.9866 52.7201 20.7333 48.6668 20.7333C46.0535 20.7333 44.7734 20.9466 44.1868 21.5866C42.9601 22.7599 43.1201 23.3466 44.9868 24.3599C45.8935 24.8399 47.1201 25.6399 47.7068 26.0666C48.7201 26.8666 48.7201 26.9199 47.6535 28.2533C47.0668 29.0533 45.7868 29.7999 44.8268 30.0133C43.8668 30.1733 42.2134 30.9733 41.1468 31.7199L39.1734 33.0533L37.4134 31.9866C32.2934 28.8399 27.2801 32.9999 31.8668 36.5199C35.1734 39.0266 34.1068 40.9999 29.4668 40.9999C26.2134 40.9999 23.9734 41.9066 23.7068 43.2933C23.4934 44.2533 24.8801 44.5733 25.4668 43.6666C25.6268 43.4 27.2801 43.1333 29.0934 43.1333C35.6001 43.1333 37.9468 39.6666 34.0001 35.8799C32.0268 34.0666 31.7601 33.3199 32.7201 32.6799C33.4134 32.2533 36.1868 34.8133 37.2534 36.8399C38.3201 38.9199 38.2134 43.08 36.9868 44.8933C34.5334 48.6266 29.6268 51.1866 23.4934 51.9333L20.4001 52.3066V49.64C20.4001 46.6533 22.3734 40.2533 24.7734 35.3999C29.0401 26.8133 37.5734 16.5733 45.0401 11.0266C47.0668 9.53326 48.5601 8.19992 48.4001 8.03992C48.0268 7.66659 42.4801 11.9333 38.5868 15.6133C30.8534 22.9733 22.0534 35.8799 17.9468 46.0133C16.5601 49.3733 15.6001 51.1333 15.0134 51.1333C13.4668 51.1333 8.72009 48.4133 7.12009 46.5466C4.88008 43.9866 4.08008 41.0533 4.88008 38.3333C5.57342 35.9866 8.29342 32.9999 10.8001 31.6666C12.2401 30.9199 12.4001 30.9199 12.4001 31.6666C12.4001 32.0933 12.1334 32.4666 11.7601 32.4666C10.7468 32.4666 7.60009 35.1333 6.48009 36.9466C4.93342 39.5066 5.25342 39.8266 7.33342 37.6933C9.57342 35.4533 12.6668 33.8533 13.8934 34.3333C14.5868 34.5999 14.1601 35.0266 12.1334 36.0399C8.98675 37.6399 7.22675 39.1333 6.21342 41.1066C5.20009 43.0266 5.94675 43.0266 7.81342 41.0533C9.30676 39.5066 12.7734 37.7466 15.7601 37.0533C17.2534 36.6799 17.2534 36.7333 17.4134 39.3999C17.4668 40.1999 17.7868 40.7333 18.2668 40.7333C18.8534 40.7333 19.1201 40.0399 19.2268 38.4399C19.3868 36.1999 19.2268 35.9333 16.6134 33.5333C14.3734 31.4533 13.8401 30.6533 13.8401 29.2666C13.8401 27.0266 15.7601 25.4266 18.0001 25.6933C20.1868 26.0133 20.8268 25.6933 21.7868 23.7733C22.4268 22.5999 22.5868 21.3733 22.3201 19.3466C22.0001 16.6266 22.0534 16.5733 23.8134 15.5066C25.2534 14.6533 25.6268 14.0666 25.8934 12.2533C26.0534 11.0266 26.4801 9.69326 26.8001 9.26659C27.7601 8.14659 29.3068 8.30659 30.0001 9.53326C30.8534 11.1333 32.5601 10.9199 32.9868 9.10659C33.7334 6.17326 35.3868 3.61325 37.0934 2.86659C39.3868 1.85325 39.4401 1.85325 40.9334 3.39992Z" fill="#5D5D5D"/>
<path d="M54.1068 28.04C51.5468 30.2266 53.0935 35.1333 56.2935 35.1333C58.2135 35.1333 59.8668 33.2666 59.8668 31.1333C59.8668 27.72 56.5601 25.96 54.1068 28.04ZM57.9468 28.52C59.0668 29.5866 59.0135 32.4133 57.8935 33.64C56.1335 35.6133 54.0001 34.28 54.0001 31.1333C54.0001 28.04 56.1335 26.6533 57.9468 28.52Z" fill="#5D5D5D"/>
<path d="M63.3867 29C62.9067 30.1733 62.1067 31.9866 61.5734 33L60.6134 34.92L61.9467 35.0266C62.9601 35.08 63.1201 34.9733 62.5867 34.6533C61.3601 33.8533 62.3201 32.36 63.9734 32.5733C65.1467 32.68 65.4667 33 65.4134 33.9066C65.4134 34.8666 65.6801 35.1333 66.6934 35.1333C67.7067 35.1333 67.8667 34.9733 67.4401 34.44C67.1201 34.0666 66.2667 32.2533 65.5734 30.3333L64.2401 26.8666L63.3867 29ZM64.6667 31.24C64.6667 31.6133 64.2934 31.9333 63.8667 31.9333C63.0134 31.9333 62.8534 31.4533 63.3867 30.0666C63.6534 29.3733 63.8134 29.32 64.1867 29.9066C64.4534 30.28 64.6667 30.92 64.6667 31.24Z" fill="#5D5D5D"/>
<path d="M68.9335 27.9333C69.3601 28.4666 69.5201 29.8533 69.3601 31.88C69.2001 34.5466 69.2535 35.0266 70.0001 34.9733C70.6401 34.92 70.8001 34.44 70.6401 33.0533L70.4801 31.1333L72.2401 33.16C74.6935 35.9333 75.8135 35.6666 73.5201 32.84L71.6001 30.4933L73.2001 29C74.0535 28.1466 75.0668 27.6666 75.5468 27.8266C75.9735 27.9866 76.8268 29.5866 77.5201 31.3466C78.1601 33.16 78.8535 34.6 79.0668 34.6C79.2801 34.6 80.0268 33.2133 80.6668 31.5066C81.3601 29.8533 82.1601 28.1466 82.4268 27.7733C82.8001 27.2933 82.6401 27.1333 81.8401 27.1333C81.0935 27.1333 80.8268 27.4 80.9868 28.0933C81.1468 28.5733 80.8268 29.96 80.3468 31.1333L79.4401 33.2666L78.6401 31.4C78.2135 30.3866 77.8401 29 77.7868 28.36C77.7335 27.2933 77.4668 27.1333 75.2268 27.1333C73.3601 27.1333 72.7735 27.2933 72.9868 27.8266C73.0935 28.2 72.6135 29.1066 71.8668 29.8L70.5335 31.0266V29.4266C70.5335 28.52 70.8535 27.6133 71.2268 27.5066C71.5468 27.3466 71.0668 27.1866 70.0535 27.1866C68.5068 27.1333 68.3468 27.24 68.9335 27.9333Z" fill="#5D5D5D"/>
<path d="M83.7601 27.5067C84.1867 27.6667 84.4001 28.9467 84.4001 31.1334C84.4001 33.32 84.1867 34.6 83.7601 34.76C83.3867 34.92 83.9201 35.08 84.9334 35.08C86.3201 35.1334 86.5867 34.9734 86.1067 34.4934C85.2534 33.64 85.2534 27.8267 86.1601 27.5067C86.4801 27.3467 85.9467 27.24 84.9334 27.24C83.9201 27.24 83.3867 27.3467 83.7601 27.5067Z" fill="#5D5D5D"/>
<path d="M88.4001 31.0801C88.4001 34.8134 88.4535 34.9734 89.6268 34.9734C90.5335 34.9734 90.6935 34.8134 90.3201 34.4401C89.5201 33.6401 89.5735 28.5734 90.3735 27.7734C90.8535 27.2934 90.7468 27.1334 89.7335 27.1334C88.4535 27.1334 88.4001 27.24 88.4001 31.0801Z" fill="#5D5D5D"/>
<path d="M94.9601 27.7734C95.7601 28.5734 95.8134 33.64 95.0134 34.44C94.5334 34.92 95.1201 35.0267 97.2534 34.9734C99.9201 34.8667 100.133 34.76 100.293 33.5334L100.453 32.2L99.6001 33.3734C99.1201 34.0667 98.2668 34.6 97.6801 34.6C96.6668 34.6 96.6134 34.3334 96.7734 30.8667C96.9334 27.1867 96.8801 27.1334 95.6534 27.1334C94.5868 27.1334 94.4801 27.2934 94.9601 27.7734Z" fill="#5D5D5D"/>
<path d="M101.893 30.6534C102.053 33.0534 101.893 34.3334 101.467 34.6001C101.093 34.8134 102.213 34.9734 103.92 34.9201C106.587 34.8667 107.067 34.7067 107.28 33.8001C107.44 32.7867 107.44 32.7334 106.373 33.6934C104.88 35.0801 103.387 34.6534 103.173 32.8401C103.013 31.7201 103.227 31.4001 104.08 31.4001C104.613 31.4001 105.253 31.7201 105.36 32.0401C105.52 32.4134 105.68 32.0401 105.68 31.1867C105.733 29.9601 105.573 29.7467 105.093 30.2267C103.973 31.3467 103.067 30.9201 103.067 29.2667C103.067 27.9334 103.28 27.6667 104.293 27.6667C104.987 27.6667 105.787 27.9334 106.16 28.3067C106.64 28.7867 106.8 28.7334 106.8 28.0401C106.8 27.2934 106.32 27.1334 104.293 27.1334H101.733L101.893 30.6534Z" fill="#5D5D5D"/>
<path d="M92.2935 34.12C91.3868 35.08 91.3868 35.1333 92.3468 35.1333C92.8801 35.1333 93.4668 34.6533 93.6268 34.0666C93.9468 32.7333 93.5201 32.7866 92.2935 34.12Z" fill="#5D5D5D"/>
<path d="M53.8935 37.6401C50.9068 41.0001 54.4801 46.5468 57.7868 43.6668L59.0668 42.5468L57.6268 43.4001C56.2935 44.2001 56.1335 44.2001 55.1201 43.1868C53.8935 41.9601 53.6268 38.9201 54.6401 37.9068C55.7068 36.8401 57.5201 37.1601 58.1602 38.4401L58.7468 39.6668V38.2801C58.8002 37.1068 58.5868 36.9468 56.7735 36.8401C55.3868 36.7334 54.4801 37.0001 53.8935 37.6401Z" fill="#5D5D5D"/>
<path d="M60.2934 37.3735C61.1467 38.2268 61.1467 43.5068 60.2934 43.8268C59.92 43.9868 60.24 44.1468 60.9867 44.1468C62.2134 44.2001 62.32 44.0401 62.1067 42.5468C61.9467 41.4801 62.1067 40.7335 62.5867 40.4135C63.2267 40.0401 63.2267 39.9335 62.5867 39.9335C62.1067 39.9335 61.9467 39.4535 62.1067 38.3335C62.32 36.8935 62.2134 36.7335 60.9867 36.7335C59.9734 36.7335 59.8134 36.8935 60.2934 37.3735Z" fill="#5D5D5D"/>
<path d="M64.9335 40.4667C64.9335 44.0934 64.9868 44.2 66.2668 44.1467C67.0135 44.1467 67.2801 43.9867 66.9601 43.8267C66.5335 43.6667 66.2668 42.44 66.2668 40.4667C66.2668 38.4934 66.5335 37.2667 66.9601 37.1067C67.2801 36.9467 67.0135 36.7867 66.2668 36.7867C64.9868 36.7334 64.9335 36.84 64.9335 40.4667Z" fill="#5D5D5D"/>
<path d="M70.5335 39.1866C69.9468 40.5199 69.4668 41.7999 69.4668 42.0666C69.4668 42.3333 69.0935 42.92 68.6135 43.3466C67.8668 44.1466 67.9201 44.2 69.3068 44.2C70.2668 44.2 70.5868 44.04 70.1068 43.7733C69.5735 43.4 69.6268 42.8133 70.4801 40.9466C71.3335 38.9733 71.5468 38.7599 71.8668 39.6666C72.0801 40.2533 72.4535 41.2666 72.7735 41.9066C73.0935 42.4933 73.1468 43.2933 72.9868 43.6133C72.7201 43.9866 73.1468 44.2 74.1068 44.2C74.9068 44.2 75.3335 43.9866 75.0135 43.7733C74.6935 43.56 73.8401 41.9066 73.2001 40.0399C72.5601 38.2266 71.9201 36.7333 71.7601 36.7333C71.6535 36.7333 71.0668 37.8533 70.5335 39.1866Z" fill="#5D5D5D"/>
<path d="M76.2934 37.3735C77.1468 38.2268 77.1468 43.5068 76.2934 43.8268C75.9201 43.9868 76.3468 44.0935 77.2001 44.0935C78.1068 44.0935 78.4801 43.9868 78.1601 43.8268C77.7334 43.6668 77.4668 42.5468 77.5201 40.8401L77.5734 38.0668L78.6401 41.2668L79.7601 44.4668L81.2535 41.2668L82.6935 38.0668L82.7468 40.8401C82.8001 42.5468 82.5335 43.6668 82.1601 43.8268C81.7868 43.9868 82.0535 44.1468 82.8001 44.1468C84.0801 44.2001 84.1335 44.0935 84.1335 40.4668C84.1335 35.7735 83.0668 35.4001 81.3601 39.5601L80.2401 42.3335L79.6535 40.8401C79.3334 40.0401 78.8534 38.8135 78.5334 38.0668C78.2134 37.2135 77.6268 36.7335 76.8268 36.7335C75.9201 36.7335 75.8134 36.8935 76.2934 37.3735Z" fill="#5D5D5D"/>
<path d="M86.4268 37.1067C86.8001 37.2667 87.0668 38.4934 87.0668 40.4667C87.0668 42.4401 86.8001 43.6667 86.4268 43.8801C86.0535 44.0401 86.9068 44.0934 88.3468 44.0401C91.5468 43.9334 92.6135 42.7067 91.1201 41.1067C90.5335 40.4134 90.3735 39.9334 90.7468 39.6667C91.6001 39.1334 91.4401 37.4267 90.4801 37.0534C90.0001 36.8934 88.7735 36.7334 87.7068 36.7867C86.6401 36.7867 86.0535 36.9467 86.4268 37.1067ZM90.0001 38.6001C90.0001 39.1867 89.5735 39.7201 89.0935 39.8267C88.3468 39.9867 88.1335 39.6667 88.1335 38.6001C88.1335 37.5334 88.3468 37.2134 89.0935 37.3734C89.5735 37.4801 90.0001 38.0134 90.0001 38.6001ZM90.2135 41.2134C91.0135 42.1734 90.3735 43.6667 89.1468 43.6667C88.4001 43.6667 88.1335 43.2934 88.1335 42.0667C88.1335 40.3601 89.1468 39.9334 90.2135 41.2134Z" fill="#5D5D5D"/>
<path d="M93.3601 37.1068C93.7334 37.2668 94.0001 38.4934 94.0001 40.4668C94.0001 42.4401 93.7334 43.6668 93.3601 43.8268C92.9867 43.9868 94.1601 44.1468 96.0268 44.1468C99.1201 44.2001 99.3334 44.1468 99.3334 42.9734C99.2801 41.9068 99.2268 41.9068 98.7468 42.7068C98.4268 43.2934 97.5734 43.6668 96.6668 43.6668C95.2267 43.6668 95.0667 43.5068 95.0667 42.0668C95.0667 40.4134 95.9734 39.9868 97.0934 41.1068C97.5734 41.5868 97.7334 41.4268 97.7334 40.2001C97.7334 38.9734 97.5734 38.8134 97.0934 39.2934C96.0268 40.3601 95.0667 40.0401 95.0667 38.6001C95.0667 37.5868 95.3334 37.2668 96.2934 37.2668C96.9868 37.2668 97.7868 37.5334 98.1601 37.9068C98.6401 38.3868 98.8001 38.3334 98.8001 37.6401C98.8001 36.8934 98.2668 36.7334 95.7601 36.7868C94.0534 36.7868 92.9867 36.9468 93.3601 37.1068Z" fill="#5D5D5D"/>
<path d="M100.667 40.4666C100.667 44.0933 100.72 44.2 102 44.1466C102.747 44.1466 103.013 43.9866 102.693 43.8266C101.893 43.56 101.733 40.9999 102.48 40.9999C102.747 40.9999 103.493 41.6933 104.133 42.5999C104.773 43.4533 105.627 44.2 106.107 44.2C106.693 44.2 106.533 43.7733 105.467 42.4933C104.24 41.0533 104.187 40.7333 104.88 40.3599C105.893 39.7733 106 38.2799 105.093 37.3733C104.72 36.9999 103.6 36.7333 102.587 36.7333H100.667V40.4666ZM104.453 38.0666C104.827 39.0266 103.813 40.4666 102.747 40.4666C102.267 40.4666 102 39.8799 102 38.8666C102 37.6399 102.213 37.2666 103.067 37.2666C103.653 37.2666 104.293 37.6399 104.453 38.0666Z" fill="#5D5D5D"/>
<path d="M1.3601 47.1333C2.58677 51.1333 7.97344 54.92 14.5334 56.4667C21.8935 58.2267 34.7468 56.2 34.1601 53.3733C33.9468 52.3066 32.9868 52.36 28.9335 53.48C27.2801 53.96 23.9735 54.3333 21.2001 54.3333C13.0401 54.3333 6.74678 52.04 2.90677 47.6666L0.773438 45.2133L1.3601 47.1333Z" fill="#5D5D5D"/>
<path d="M80.6134 48.5733C80.2401 49.2133 79.6001 50.3333 79.1734 50.9733C78.7468 51.6666 78.5334 52.2 78.7468 52.2C79.2268 52.2 81.8401 47.8799 81.5734 47.5599C81.4134 47.3999 80.9868 47.8799 80.6134 48.5733Z" fill="#5D5D5D"/>
<path d="M1.41339 50.8667C4.08006 57.2667 11.5467 60.8933 21.7334 60.84C28.9867 60.7867 35.8668 58.3333 33.9468 56.4667C33.6801 56.2 31.8667 56.4667 29.7334 57.0533C27.3334 57.6933 24.3467 58.0667 21.2001 58.0667C12.9334 58.0667 6.80006 55.7733 2.80006 51.2933L0.560059 48.7333L1.41339 50.8667Z" fill="#5D5D5D"/>
<path d="M53.8934 55.24C53.4667 55.7734 52.9334 56.6267 52.7734 57.16C52.2934 58.3867 53.3601 60.6267 54.6401 61C55.8667 61.4267 57.7334 60.84 57.7334 60.0934C57.7334 59.7734 57.4134 59.7734 56.9334 60.2C55.1201 61.6934 52.9867 58.92 53.9467 56.3067C54.5867 54.6534 56.3467 54.3867 57.1467 55.7734C57.6268 56.6267 57.6801 56.6267 57.7334 55.88C57.7334 54.2267 55.1201 53.8 53.8934 55.24Z" fill="#5D5D5D"/>
<path d="M59.7068 55.2933C58.5335 56.6266 58.5868 59.2933 59.7601 60.36C61.8935 62.28 64.6668 60.7333 64.6668 57.6933C64.6668 54.8133 61.5202 53.2666 59.7068 55.2933ZM62.9602 55.5066C63.9202 56.4666 63.7602 60.1466 62.7468 60.5733C61.3602 61.1066 60.1335 59.9866 59.9735 58.12C59.7068 55.4533 61.4135 53.96 62.9602 55.5066Z" fill="#5D5D5D"/>
<path d="M66.6402 55.5067C67.2268 56.2 68.0268 57.64 68.4002 58.76C68.7735 59.9867 69.2535 60.6267 69.5202 60.36C70.2668 59.6134 67.5468 54.3334 66.4268 54.3334C65.6802 54.3334 65.6802 54.4934 66.6402 55.5067Z" fill="#5D5D5D"/>
<path d="M71.5468 54.7068C71.5468 54.9735 71.4401 56.5202 71.4401 58.1735C71.3335 60.6268 71.4935 61.2668 72.1335 61.2668C72.7735 61.2668 72.9335 60.5202 72.9335 57.8002C72.9335 55.4002 72.7201 54.3335 72.2935 54.3335C71.9201 54.3335 71.6001 54.4935 71.5468 54.7068Z" fill="#5D5D5D"/>
<path d="M75.1735 55.3468C75.8135 55.8802 76.6135 57.2668 76.9868 58.4935C77.5735 60.4668 78.5335 61.5335 78.5335 60.2535C78.5335 59.9868 78.6935 59.2935 78.8535 58.7602C79.0668 58.0668 79.0135 57.9602 78.6401 58.5468C78.2668 59.0802 77.8935 58.6535 77.2001 56.7868C76.5068 54.9202 75.9735 54.3335 75.1201 54.3335L74.0001 54.3868L75.1735 55.3468Z" fill="#5D5D5D"/>
<path d="M79.7067 55.6668C78.8534 57.4802 78.9067 57.9602 79.7601 56.7868C80.3467 55.9335 80.4534 55.9868 80.5601 57.2135C80.6134 57.9602 80.4001 59.1868 80.1334 59.9335C79.7067 61.0535 79.7601 61.2668 80.6134 61.2668C81.4667 61.2668 81.5201 60.9468 81.3067 58.6002C81.1467 56.8935 81.3067 55.6668 81.7334 55.1335C82.2667 54.4935 82.2134 54.3335 81.3601 54.3335C80.7734 54.3335 80.0267 54.9202 79.7067 55.6668Z" fill="#5D5D5D"/>
<path d="M83.6001 57.8002C83.6001 60.5735 83.7601 61.2668 84.4534 61.2668C85.0934 61.2668 85.2001 60.8402 85.0401 59.5602C84.8268 58.0668 84.9334 57.9602 85.9468 58.2268C86.8534 58.4402 87.0668 58.2802 87.0134 57.3735C87.0134 56.7335 86.8534 56.5202 86.6934 56.8402C86.2134 58.0668 84.9334 57.5868 84.9334 56.2002C84.9334 54.7068 86.3201 54.3868 87.5468 55.5068C88.1334 56.0935 88.2401 56.0402 88.0268 55.4002C87.8668 54.9202 86.9601 54.5468 85.6801 54.4402L83.6001 54.2802V57.8002Z" fill="#5D5D5D"/>
<path d="M90.0001 57.8002C90.0001 60.8402 90.1068 61.2668 91.0135 61.2668C91.8135 61.2668 91.8668 61.1068 91.3335 60.5202C90.9601 59.9868 90.9068 59.4002 91.2268 58.8135C91.6535 58.0668 91.8668 58.1735 92.8801 59.6135C93.5201 60.5202 94.3201 61.2668 94.5868 61.2668C94.9068 61.2668 94.5868 60.5202 93.9468 59.5602C93.0935 58.4402 92.9335 57.8002 93.3601 57.6402C94.3201 57.3202 94.1601 55.0268 93.1468 54.6535C92.6668 54.4935 91.8135 54.3335 91.1735 54.3335C90.1068 54.3335 90.0001 54.6002 90.0001 57.8002ZM92.8268 56.3602C92.9868 57.2135 92.7201 57.5335 91.9735 57.5335C91.2268 57.5335 90.9601 57.2135 91.0668 56.3068C91.2268 54.7602 91.2268 54.7602 92.0268 54.9735C92.3468 55.1335 92.7201 55.7202 92.8268 56.3602Z" fill="#5D5D5D"/>
<path d="M96.9868 55.1333C95.7602 56.4133 95.4935 57.9067 96.2402 59.5067C97.0935 61.32 99.3335 61.7467 100.454 60.36C101.147 59.5067 101.094 59.4533 100.294 60.0933C98.9602 61.16 97.3068 60.4133 96.9335 58.6C96.2935 55.6667 99.0135 53.48 100.347 55.7733C100.827 56.6267 100.88 56.6267 100.934 55.88C100.934 54.28 98.3202 53.8 96.9868 55.1333Z" fill="#5D5D5D"/>
<path d="M102.427 55.1334C102.64 55.6134 102.693 57.1601 102.533 58.6534L102.16 61.3201L104.613 61.1601C106.587 61.0534 107.12 60.7867 107.227 59.9334C107.44 58.9201 107.387 58.9201 106.693 59.8801C105.68 61.1601 103.92 60.7867 103.707 59.1867C103.547 58.1201 103.707 57.9601 104.613 58.2267C105.307 58.3867 105.733 58.2267 105.733 57.8001C105.733 57.3734 105.307 57.2134 104.667 57.3734C103.813 57.5867 103.6 57.3734 103.6 56.2534C103.6 54.7601 104.987 54.3334 106.16 55.5067C106.64 55.9867 106.8 55.9334 106.8 55.2401C106.8 54.4934 106.32 54.3334 104.4 54.3334C102.32 54.3334 102 54.4934 102.427 55.1334Z" fill="#5D5D5D"/>
<path d="M75.3334 58.7602C75.3334 59.4535 75.0668 60.2535 74.6934 60.6268C74.2134 61.1068 74.2668 61.2668 75.1201 61.2668C76.0268 61.2668 76.1334 61.0002 75.9734 59.4002C75.7068 57.2668 75.3334 56.8935 75.3334 58.7602Z" fill="#5D5D5D"/>
<path d="M66.1067 60.2002C65.8934 61.0002 66.1067 61.2668 66.9067 61.2668C67.8667 61.2668 67.92 61.1602 67.28 60.3068C66.9067 59.8268 66.5334 59.3468 66.48 59.2402C66.4267 59.1868 66.2667 59.5602 66.1067 60.2002Z" fill="#5D5D5D"/>
<path d="M87.0668 60.5735C85.7868 61.2135 85.7868 61.2668 86.9068 61.2668C87.5468 61.2668 88.2402 61.0002 88.4002 60.6802C88.9868 59.8268 88.5068 59.7735 87.0668 60.5735Z" fill="#5D5D5D"/>
</svg>
