<svg width="54" height="93" viewBox="0 0 54 93" fill="none" xmlns="http://www.w3.org/2000/svg">
<path d="M6.7869 1.79982C6.73356 2.97316 6.9469 4.67983 7.21356 5.63983C8.0669 8.57316 7.05356 8.1465 6.09356 5.15983C5.13356 2.11982 4.7069 3.55982 5.61356 6.75983C6.04023 8.25316 5.61356 9.15983 4.97356 8.03983C4.7069 7.55983 5.0269 8.73316 5.5069 9.90649C5.8269 10.7598 5.77356 10.7598 4.97356 10.1198C4.33356 9.58649 4.06689 9.58649 4.06689 10.0665C4.06689 11.4532 7.32023 18.7065 9.08023 21.2665C10.0936 22.7598 11.5869 26.0132 12.3336 28.4665C13.7736 33.2665 15.8002 36.3598 16.8669 35.3465C17.2936 34.9198 17.0802 34.0665 16.1202 32.1465C12.9736 25.7998 12.5469 20.9998 14.7336 16.8398C16.1736 14.2265 16.0669 13.5332 14.0936 10.3865C13.1336 8.9465 12.2269 6.65316 12.0136 5.31983L11.6936 2.86649L11.5869 5.10649C11.4802 8.4665 10.6269 7.87983 10.0936 4.03983L9.61357 0.733154L9.13357 3.93316L8.7069 7.13316L7.7469 3.39983C6.89356 -0.0135117 6.84023 -0.120178 6.7869 1.79982Z" fill="#5D5D5D"/>
<path d="M15.7469 17.9067C15.2669 18.44 15.0003 20.1467 15.0003 22.5467C15.0003 25.8 15.2669 26.92 16.9203 30.3867C18.787 34.28 18.8403 34.5467 18.0936 36.0933C17.0803 38.1733 15.6936 39.08 11.8536 40.2C10.2003 40.68 8.86694 41.2667 8.86694 41.4267C8.86694 41.64 9.56028 42.12 10.4669 42.4933C12.1736 43.2933 13.2403 43.08 16.5469 41.4267C17.7203 40.84 20.8136 39.9867 23.4803 39.56C26.0936 39.1333 29.4003 38.3333 30.7336 37.8C32.067 37.2133 35.5336 36.1467 38.467 35.4533C44.707 33.9067 47.9603 32.6267 47.5336 31.9333C47.3736 31.6667 47.4803 31.3467 47.8003 31.1333C48.067 30.9733 48.3336 30.5467 48.3336 30.2267C48.3336 29.9067 47.907 29.96 47.427 30.44C44.6003 32.9467 37.5603 35.1333 32.4936 35.1333C29.0803 35.1333 28.067 34.5467 28.067 32.6267C28.067 31.6667 27.747 31.4 26.627 31.4C23.8536 31.4 18.3603 23.9333 17.5603 18.9733C17.2403 16.7867 16.8136 16.5733 15.7469 17.9067Z" fill="#5D5D5D"/>
<path d="M29.6668 32.2001C28.7068 33.3734 29.7201 34.2801 31.3201 33.7467C32.0135 33.5334 32.7601 33.3734 33.0268 33.4267C34.0935 33.6934 33.2401 32.3601 32.0135 31.9334C30.3068 31.2934 30.4668 31.2401 29.6668 32.2001Z" fill="#5D5D5D"/>
<path d="M0.866731 71.8801C-0.41327 74.2801 1.02673 76.7867 3.58673 76.6801C4.6534 76.6267 4.60007 76.5734 3.16007 76.1467C0.0133973 75.2401 0.226731 71.7201 3.42673 71.2401C4.76007 71.0267 4.70673 71.0267 3.16007 70.9201C1.9334 70.8667 1.2934 71.1867 0.866731 71.8801Z" fill="#5D5D5D"/>
<path d="M38.3069 72.2533C37.9336 72.68 37.8802 73 38.1469 73C38.4136 73 38.7336 73.8 38.8402 74.7066C38.9469 75.9866 39.3202 76.52 40.0669 76.6266C41.0269 76.7333 41.0269 76.7333 40.2269 76.2C39.1602 75.56 38.9469 73.2133 39.8536 72.8933C40.2802 72.7333 40.2269 72.52 39.7469 72.0933C39.1602 71.6666 38.8402 71.72 38.3069 72.2533Z" fill="#5D5D5D"/>
<path d="M5.88019 73.7999C5.29353 76.2 7.85353 77.8 9.4002 75.9866C10.1469 75.0266 9.93353 72.8933 8.97353 72.5733C8.38686 72.4133 8.38686 72.5733 8.9202 73.4266C9.77353 74.7599 9.18686 76.2 7.85353 76.2C6.36019 76.2 5.77353 74.0666 7.05353 73.1599C7.90686 72.5199 7.90686 72.4666 7.10686 72.4666C6.62686 72.4666 6.09353 73.0533 5.88019 73.7999Z" fill="#5D5D5D"/>
<path d="M11.5868 74.8133C11.6934 76.6267 11.7468 76.7333 11.9068 75.4C12.0668 74.4933 12.3868 73.5333 12.6534 73.2133C12.9201 72.84 12.8134 72.6267 12.3334 72.6267C11.7468 72.6267 11.5334 73.2133 11.5868 74.8133Z" fill="#5D5D5D"/>
<path d="M14.0402 73.0534C14.3602 73.48 14.7335 74.4934 14.8935 75.4C15.1068 76.6267 15.1068 76.4667 15.0535 74.92C15.0002 73.5867 14.7335 72.7334 14.2002 72.5734C13.5601 72.36 13.5068 72.4667 14.0402 73.0534Z" fill="#5D5D5D"/>
<path d="M16.5468 73.1068C16.3334 73.4801 16.6534 74.0668 17.2934 74.4934C18.7334 75.4001 18.7868 76.0401 17.5601 76.3601C16.6534 76.5734 16.6534 76.6268 17.5601 76.6801C18.8934 76.7334 19.3734 75.1334 18.3068 74.3334C17.1334 73.4801 17.1868 73.1601 18.3601 72.8401C19.0534 72.6268 19.0001 72.5734 18.0934 72.5201C17.4534 72.5201 16.7601 72.7334 16.5468 73.1068Z" fill="#5D5D5D"/>
<path d="M20.4935 73.8C19.7468 75.4534 20.7068 76.7334 22.6802 76.68C23.8002 76.6267 23.8535 76.5734 23.0002 76.36C22.4135 76.2 21.6135 75.8267 21.1868 75.4534C20.5468 74.9734 20.8135 74.8134 22.4135 74.6C24.2802 74.3334 24.3335 74.28 23.5335 73.2667C22.8935 72.4134 22.7868 72.36 23.0535 73.1067C23.3202 73.8534 23.1068 74.0667 22.2002 74.0667C21.3468 74.0667 21.1335 73.8534 21.3468 73.2667C21.8268 71.9334 21.1335 72.36 20.4935 73.8Z" fill="#5D5D5D"/>
<path d="M25.4536 74.7065C25.5603 76.5199 25.6136 76.6799 25.7736 75.3999C25.8803 74.4932 26.4136 73.4799 26.8936 73.1065C27.6403 72.5199 27.5869 72.4665 26.5736 72.4665C25.5603 72.4665 25.4003 72.7332 25.4536 74.7065Z" fill="#5D5D5D"/>
<path d="M29.3468 74.44C30.2534 77.0533 30.9468 77.16 31.6934 74.76C32.4401 72.3067 32.1201 71.8267 31.3201 74.1733L30.6801 75.9333L29.9334 74.1733C28.9201 71.8267 28.4934 71.9867 29.3468 74.44Z" fill="#5D5D5D"/>
<path d="M34.8936 72.8401C35.5336 72.9468 36.0669 73.2668 36.0669 73.5334C36.0669 73.8001 35.5336 74.0668 34.8936 74.1734C33.5069 74.3334 33.1336 76.4134 34.4669 76.5201C35.0002 76.5734 35.0002 76.4668 34.5736 76.3601C33.6669 76.0401 34.0402 74.9201 35.1602 74.7068C35.8002 74.6001 36.0669 74.8668 36.0669 75.6134C36.0669 76.9468 36.9202 77.1068 37.0269 75.7734C37.1336 73.4268 36.6002 72.4668 35.1069 72.5201C33.8802 72.6268 33.8269 72.6268 34.8936 72.8401Z" fill="#5D5D5D"/>
<path d="M42.0935 74.6C42.0935 75.9333 42.2002 76.4666 42.3068 75.7733C42.4135 75.1333 42.4135 74.0666 42.3068 73.3733C42.2002 72.7333 42.0935 73.2666 42.0935 74.6Z" fill="#5D5D5D"/>
<path d="M44.4402 72.8399C44.2269 72.9999 44.0669 73.8533 44.0669 74.6533C44.0669 75.8266 44.3869 76.2533 45.4002 76.52C47.6936 77.1066 49.2936 74.7066 47.6936 73.1066C47.0002 72.4133 45.0269 72.2533 44.4402 72.8399ZM47.5336 73.5333C48.1202 74.4933 47.2136 76.2 46.1469 76.2C44.9736 76.2 44.3336 75.0266 44.8136 73.7999C45.1336 72.8933 47.0536 72.7333 47.5336 73.5333Z" fill="#5D5D5D"/>
<path d="M49.8803 73.6401C49.8803 74.3334 49.7736 75.2934 49.667 75.7734C49.5603 76.3067 49.7203 76.7334 49.987 76.7334C50.2536 76.7334 50.467 75.8801 50.467 74.8667C50.467 73.3734 50.6803 73.0001 51.5336 73.0001C52.387 73.0001 52.6003 73.3734 52.6003 74.8667C52.6003 75.8801 52.8136 76.7334 53.1336 76.7334C53.5603 76.7334 53.5603 75.5067 53.187 72.8401C53.187 72.6267 52.4403 72.4667 51.5336 72.4667C50.2536 72.4667 49.9336 72.6801 49.8803 73.6401Z" fill="#5D5D5D"/>
<path d="M22.6802 80.0399C22.4669 84.6799 22.7869 91.9333 23.2135 92.0933C23.5869 92.1999 23.8002 90.1199 23.8002 85.8533C23.8002 81.9066 23.5869 79.3999 23.2669 79.3999C23.0002 79.3999 22.7335 79.7199 22.6802 80.0399Z" fill="#5D5D5D"/>
<path d="M0.333496 86.0666C0.333496 91.1866 0.493496 92.2 1.1335 92.2C1.7735 92.2 1.9335 91.5066 1.9335 89.2666V86.2799L5.02683 86.4399L8.06684 86.5999L8.22684 89.3733C8.3335 91.1333 8.6535 92.2 9.02684 92.2C9.50684 92.2 9.6135 90.5466 9.50684 86.0666C9.40017 82.7066 9.1335 79.9333 8.8135 79.9333C8.54684 79.9333 8.3335 81.1066 8.3335 82.5999V85.2666H5.1335H1.9335V82.5999C1.9335 80.5733 1.72016 79.9333 1.1335 79.9333C0.493496 79.9333 0.333496 80.9466 0.333496 86.0666Z" fill="#5D5D5D"/>
<path d="M28.7603 80.8399C28.3869 80.9999 28.0669 81.5333 28.0669 82.1199C28.0669 82.7599 27.6936 83.1333 27.0003 83.1333C26.4136 83.1333 25.9336 83.3466 25.9336 83.6666C25.9336 83.9333 26.4136 84.1999 27.0003 84.1999C27.9069 84.1999 28.0669 84.5733 28.0669 86.8133C28.0669 90.76 28.7603 92.2 30.7336 92.2C32.6003 92.2 32.9203 91.2933 31.1603 91.0266C30.0403 90.8666 29.9336 90.5466 29.7736 87.5066C29.6136 84.2533 29.6669 84.1999 31.0003 84.1999C31.7469 84.1999 32.3336 83.9333 32.3336 83.6666C32.3336 83.3466 31.7469 83.1333 31.0536 83.1333C30.0936 83.1333 29.6669 82.8133 29.5603 81.9066C29.4536 81.1599 29.1336 80.7333 28.7603 80.8399Z" fill="#5D5D5D"/>
<path d="M13.8269 83.5067C12.4402 84.04 13.1869 84.7867 14.7336 84.4667C16.4936 84.0934 17.9336 84.84 17.9336 86.1201C17.9336 86.6001 17.2936 86.8667 16.1736 86.8667C12.9736 86.8667 10.8402 89.6934 12.7069 91.5601C13.5602 92.4134 16.4402 92.3601 17.3469 91.5601C17.9336 90.9734 18.0936 90.9734 18.3069 91.5067C18.9469 93.2667 19.5336 91.8801 19.5336 88.7334C19.5336 85.9601 19.3202 85.0534 18.4669 84.2C17.4536 83.1867 15.3202 82.8667 13.8269 83.5067ZM17.9336 88.8934C17.9336 90.2267 16.9202 91.1334 15.4269 91.1334C13.9336 91.1334 13.2936 89.8534 14.2002 88.7334C15.1602 87.5601 17.9336 87.6667 17.9336 88.8934Z" fill="#5D5D5D"/>
<path d="M35.2669 84.4667C32.4403 87.2933 34.4669 92.4133 38.3603 92.4133C39.6936 92.4133 40.7603 91.9867 41.7203 91.08C42.8936 89.96 43.0536 89.48 42.8403 87.4C42.5203 84.5733 41.027 83.1333 38.3603 83.1333C37.1336 83.1333 36.1203 83.56 35.2669 84.4667ZM40.4403 85.1067C42.4136 86.8667 40.9736 91.6667 38.4669 91.6667C37.1869 91.6667 35.5336 89.64 35.5336 88.04C35.5336 84.84 38.3069 83.1333 40.4403 85.1067Z" fill="#5D5D5D"/>
<path d="M45.4535 84.3066C45.5068 84.9999 45.6135 87.0266 45.6135 88.8399C45.6668 90.7066 45.8801 92.2 46.2001 92.2C46.5201 92.2 46.7335 91.1333 46.7335 89.8533C46.7335 86.7599 47.4801 84.8933 48.8668 84.4666C50.8935 83.8266 52.0668 85.5333 52.0668 89.1066C52.0668 90.8133 52.2801 92.2 52.6001 92.2C52.9201 92.2 53.1335 90.6533 53.1335 88.5733C53.1335 84.5199 52.2801 83.1333 49.9335 83.1333C49.2401 83.1333 48.2268 83.5066 47.6935 84.0399C46.7868 84.8399 46.7335 84.8399 46.7335 84.0399C46.7335 83.5066 46.4135 83.1333 46.0401 83.1333C45.6135 83.1333 45.3468 83.6133 45.4535 84.3066Z" fill="#5D5D5D"/>
</svg>
