<svg width="102" height="63" viewBox="0 0 102 63" fill="none" xmlns="http://www.w3.org/2000/svg">
<path d="M36.6003 2.46652V4.59985H51.5337H66.467V2.46652V0.333184H51.5337H36.6003V2.46652Z" fill="#5D5D5D"/>
<path d="M36.9737 8.70649C36.7603 8.86649 36.6003 13.6665 36.6003 19.3732V29.6665H38.8937H41.1337L41.027 19.1598L40.9737 8.59982L39.1603 8.49315C38.147 8.38649 37.1337 8.49315 36.9737 8.70649Z" fill="#5D5D5D"/>
<path d="M45.1335 11V13.1333H55.8002H66.4669V11V8.86663H55.8002H45.1335V11Z" fill="#5D5D5D"/>
<path d="M45.1335 23.5333V30.2H55.8002H66.4669V27.7999V25.3999H58.2002H49.9335V23.5333V21.6666H58.2002H66.4669V19.2666V16.8666H55.8002H45.1335V23.5333Z" fill="#5D5D5D"/>
<path d="M0.866943 46.4666V52.0667H2.20028C3.42695 52.0667 3.53361 51.8533 3.53361 49.9333V47.8H5.66695C7.42695 47.8 7.80028 47.64 7.80028 46.7333C7.80028 45.8266 7.42695 45.6666 5.66695 45.6666C3.90695 45.6666 3.53361 45.5066 3.53361 44.6C3.53361 43.6933 3.90695 43.5333 5.66695 43.5333C7.58695 43.5333 7.80028 43.3733 7.80028 42.2C7.80028 40.92 7.69362 40.8666 4.33361 40.8666H0.866943V46.4666Z" fill="#5D5D5D"/>
<path d="M10.8404 41.24C10.627 41.4 10.467 43.96 10.467 46.84C10.467 52.0667 10.467 52.0667 11.8004 52.0667H13.1337V46.4666C13.1337 41.4 13.027 40.8666 12.1737 40.8666C11.6404 40.8666 11.0004 41.0266 10.8404 41.24Z" fill="#5D5D5D"/>
<path d="M16.3337 46.4133V52.0667H17.6671C18.7871 52.0667 19.0004 51.8 19.0004 50.4666C19.0004 49.4533 19.2671 48.8666 19.7471 48.8666C20.1737 48.8666 21.0271 49.56 21.6671 50.4666C22.4137 51.48 23.2671 52.0667 24.1204 52.0667C25.6671 52.0667 25.7204 51.8 24.3337 50.0933C23.3737 48.8666 23.3737 48.6533 24.0671 47.64C25.0804 46.2 25.0804 43.5333 24.1204 42.2C23.5871 41.4533 22.5204 41.1333 19.8537 40.9733L16.3337 40.76V46.4133ZM22.0937 44.9733C21.9871 46.1466 21.6137 46.52 20.4937 46.6266C19.1604 46.7866 19.0004 46.6266 19.0004 45.1866C19.0004 43.6933 19.1604 43.5333 20.6537 43.5333C22.0937 43.5333 22.2537 43.6933 22.0937 44.9733Z" fill="#5D5D5D"/>
<path d="M28.9202 41.72C27.9069 42.68 27.8002 45.8266 28.7602 46.6266C29.0802 46.8933 30.2002 47.32 31.1602 47.5333C32.6002 47.8 32.9202 48.12 32.7602 49.0266C32.6002 50.04 32.2802 50.2 30.3602 50.04C28.3869 49.9333 28.0669 50.04 28.0669 50.9466C28.0669 51.7466 28.5469 52.0666 30.1469 52.3333C34.0936 52.9733 36.1736 51 35.3202 47.48C35.0536 46.5733 34.4136 46.0933 32.8669 45.6666C31.2669 45.24 30.7336 44.8133 30.7336 44.0133C30.7336 43.0533 31.0002 42.8933 32.8136 43.1066C34.4669 43.2666 35.0002 43.1066 35.1602 42.36C35.5336 41.08 35.1602 40.8666 32.2802 40.8666C30.6802 40.8666 29.4536 41.1866 28.9202 41.72Z" fill="#5D5D5D"/>
<path d="M37.667 42.2C37.667 43.2666 37.9337 43.5333 39.0003 43.5333C40.3337 43.5333 40.3337 43.5866 40.3337 47.8C40.3337 52.0133 40.3337 52.0667 41.667 52.0667C43.0003 52.0667 43.0003 52.0133 43.0003 47.8533C43.0003 43.64 43.0003 43.5866 44.4937 43.4266C45.507 43.32 45.9337 42.9466 45.9337 42.2C45.9337 41.24 45.507 41.1333 41.827 40.9733C37.667 40.8133 37.667 40.8133 37.667 42.2Z" fill="#5D5D5D"/>
<path d="M53.7737 41.72C52.7603 42.4134 52.6003 43 52.6003 46.36C52.6003 48.4934 52.8137 50.4667 53.027 50.84C53.667 51.9067 56.387 52.6534 58.2003 52.28C59.587 52.0134 59.907 51.7467 59.6937 50.9467C59.4803 50.1467 58.947 49.9334 57.2937 49.9334H55.2137L55.3737 46.5734L55.5337 43.2667L57.5603 43.3734C59.3203 43.48 59.5337 43.3734 59.5337 42.2C59.5337 40.9734 59.3203 40.8667 57.2403 40.8667C56.0137 40.8667 54.4137 41.24 53.7737 41.72Z" fill="#5D5D5D"/>
<path d="M62.7336 46.4666V52.0667H66.2536C69.2936 52.0667 69.7203 51.96 69.5603 51.1066C69.4536 50.4666 68.7603 50.1466 67.107 50.04L64.867 49.88V45.3466C64.867 41.24 64.7603 40.8666 63.8003 40.8666C62.787 40.8666 62.7336 41.24 62.7336 46.4666Z" fill="#5D5D5D"/>
<path d="M74.787 41.5066C74.0403 43.64 71.8003 51.48 71.8003 51.7467C71.8003 51.9067 72.387 52.0667 73.0803 52.0667C73.8803 52.0667 74.467 51.6933 74.627 51C74.8403 50.2 75.3736 49.9333 76.8136 49.9333C78.3603 49.9333 78.7336 50.1466 78.7336 51C78.7336 51.8 79.107 52.0667 80.067 52.0667C81.667 52.0667 81.667 51.9067 79.8536 45.9333C78.467 41.2933 78.3603 41.1333 76.707 40.9733C75.6403 40.8666 74.8936 41.08 74.787 41.5066ZM77.1336 44.7066C77.1336 45.08 77.2936 45.9333 77.4536 46.5733C77.7203 47.5866 77.5603 47.8 76.6003 47.8C75.6403 47.8 75.4803 47.5866 75.747 46.5733C75.907 45.9333 76.067 45.08 76.067 44.7066C76.067 44.3866 76.3336 44.0666 76.6003 44.0666C76.9203 44.0666 77.1336 44.3866 77.1336 44.7066Z" fill="#5D5D5D"/>
<path d="M85.0269 41.4533C84.3869 41.8267 84.0669 42.6267 84.0669 44.0133C84.0669 46.2533 84.6536 47 86.8936 47.5333C90.0936 48.3333 89.1336 50.6267 85.8269 50.0933C84.7069 49.88 84.0669 49.9867 84.0669 50.4133C84.0669 50.7333 84.0136 51.16 83.9603 51.3733C83.6936 52.0133 86.9469 52.6 88.7603 52.28C90.8403 51.9067 91.8536 50.2 91.3203 48.0667C91.0536 47.0533 90.3069 46.4133 88.5469 45.6667C85.5603 44.3333 85.6669 43.2667 88.8136 43.32C90.7869 43.3733 91.0536 43.2133 90.8936 42.2533C90.7869 41.3467 90.3069 41.1333 88.3336 41.0267C87.0003 40.92 85.5069 41.1333 85.0269 41.4533Z" fill="#5D5D5D"/>
<path d="M95.1603 41.4534C94.5203 41.8267 94.2003 42.6267 94.2003 44.0134C94.2003 46.2534 94.787 47 97.027 47.5334C100.067 48.3334 99.267 50.68 96.1737 50.0934C95.1603 49.88 94.467 50.04 94.2003 50.52C93.507 51.5334 93.987 51.9067 96.227 52.3334C98.8937 52.76 101.027 51.9067 101.454 50.2534C101.987 48.0667 101.187 46.7334 98.627 45.6134C95.6937 44.3334 95.8537 43.2667 98.947 43.32C100.92 43.3734 101.187 43.2134 101.027 42.2534C100.92 41.3467 100.44 41.1334 98.467 41.0267C97.1337 40.92 95.6403 41.1334 95.1603 41.4534Z" fill="#5D5D5D"/>
<path d="M22.7336 60.3334C22.7336 61.6667 23.0003 62.7334 23.267 62.7334C23.587 62.7334 23.8003 62.2534 23.8003 61.7201C23.8003 61.0801 24.227 60.6001 25.027 60.4401L26.2003 60.2267L25.027 60.1201C23.5336 60.0667 23.3736 59.0001 24.867 59.0001C25.4536 59.0001 25.9336 58.7334 25.9336 58.4667C25.9336 58.1467 25.2403 57.9334 24.3336 57.9334C22.787 57.9334 22.7336 58.0401 22.7336 60.3334Z" fill="#5D5D5D"/>
<path d="M29.667 60.3334C29.667 62.5201 29.7737 62.7334 31.0003 62.7334C31.747 62.7334 32.3337 62.4667 32.3337 62.2001C32.3337 61.8801 31.9603 61.6667 31.5337 61.6667C31.0003 61.6667 30.7337 61.0801 30.7337 59.8001C30.7337 58.7867 30.5203 57.9334 30.2003 57.9334C29.9337 57.9334 29.667 59.0001 29.667 60.3334Z" fill="#5D5D5D"/>
<path d="M36.067 58.7866C34.947 60.1199 36.0137 62.4133 37.827 62.6266C38.6804 62.7333 39.6937 62.5199 40.1204 62.1466C41.027 61.3999 41.0804 59.4266 40.227 58.5733C39.3204 57.6666 36.867 57.7733 36.067 58.7866ZM39.5337 60.3333C39.5337 61.5066 37.8804 62.0933 37.027 61.2399C36.1204 60.3333 36.9737 58.8933 38.307 59.1066C39.107 59.2133 39.5337 59.6399 39.5337 60.3333Z" fill="#5D5D5D"/>
<path d="M44.7069 58.5734C44.3336 58.9467 44.0669 59.6934 44.0669 60.3334C44.0669 61.8267 45.0802 62.7334 46.7336 62.7334C48.3869 62.7334 49.4002 61.8267 49.4002 60.3334C49.4002 58.8401 48.3869 57.9334 46.7336 57.9334C45.9869 57.9334 45.0802 58.2001 44.7069 58.5734ZM48.0669 60.3334C48.0669 61.5067 46.4136 62.0934 45.5602 61.2401C44.6536 60.3334 45.5069 58.8934 46.8402 59.1067C47.6402 59.2134 48.0669 59.6401 48.0669 60.3334Z" fill="#5D5D5D"/>
<path d="M52.6003 60.2801C52.6003 61.6134 52.867 62.7334 53.1337 62.7334C53.4537 62.7334 53.667 62.3601 53.667 61.9334C53.667 61.5067 53.9337 61.1334 54.2003 61.1334C54.5203 61.1334 54.8937 61.5067 55.0537 61.9334C55.6403 63.4267 56.1737 62.7334 56.1203 60.4401C56.067 58.3067 55.9603 58.2001 54.3603 58.0401C52.6003 57.8801 52.6003 57.8801 52.6003 60.2801Z" fill="#5D5D5D"/>
<path d="M60.0669 60.3334C60.0669 61.6667 60.3336 62.7334 60.6002 62.7334C60.9202 62.7334 61.1336 61.6667 61.1336 60.3334C61.1336 59.0001 60.9202 57.9334 60.6002 57.9334C60.3336 57.9334 60.0669 59.0001 60.0669 60.3334Z" fill="#5D5D5D"/>
<path d="M64.8669 60.3333C64.8669 61.6666 65.1336 62.7333 65.4003 62.7333C65.7203 62.7333 65.9336 62.0933 65.9336 61.24L65.9869 59.8L67.0536 61.24C68.7603 63.5333 69.6669 63.16 69.6669 60.3333C69.6669 59 69.4536 57.9333 69.1336 57.9333C68.8669 57.9333 68.6003 58.52 68.6003 59.2666C68.6003 60.0133 68.3869 60.6 68.1736 60.6C67.9069 60.6 67.4269 60.0133 67.1069 59.2666C66.0403 57.0266 64.8669 57.56 64.8669 60.3333Z" fill="#5D5D5D"/>
<path d="M73.347 59.0534C72.3336 60.9734 73.507 62.7334 75.8003 62.7334C77.4536 62.7334 77.667 62.5734 77.667 61.4001C77.667 60.3867 77.4003 60.0667 76.547 60.0667C75.5336 60.0667 75.4803 60.1734 76.1203 60.9201C76.707 61.6667 76.6536 61.7201 75.5336 61.5601C73.5603 61.2934 73.7203 59.3201 75.6936 59.1067C77.6136 58.8934 77.5603 57.9334 75.5336 57.9334C74.467 57.9334 73.7736 58.3067 73.347 59.0534Z" fill="#5D5D5D"/>
</svg>
