<svg width="129" height="34" viewBox="0 0 129 34" fill="none" xmlns="http://www.w3.org/2000/svg">
<path d="M55.0406 1.86673C52.8539 3.20006 51.7339 5.76006 51.7339 9.54673C51.7339 15.6267 54.5072 18.8801 59.2006 18.2401C63.4139 17.7067 65.4406 14.1334 64.9072 8.10673C64.5872 4.42673 63.4672 2.56006 61.0672 1.54673C58.5606 0.533394 57.1206 0.586727 55.0406 1.86673ZM59.8939 4.26673C61.6006 5.92006 61.6539 13.8134 60.0006 15.2001C58.8806 16.1601 56.9072 15.6267 56.1072 14.1334C55.2006 12.4267 55.4672 5.54673 56.4806 4.32006C57.3872 3.2534 58.8806 3.20006 59.8939 4.26673Z" fill="#5D5D5D"/>
<path d="M1.06714 9.54675C1.06714 16.9068 1.17381 17.7601 2.02714 17.9734C3.84047 18.4534 4.26714 17.8668 4.26714 14.6668V11.5201L6.82714 11.3601C8.96048 11.2001 9.33381 11.0401 9.49381 9.97342C9.65381 8.90675 9.49381 8.80009 6.98714 8.80009H4.26714V6.13342V3.46675H7.46714C10.2938 3.46675 10.6671 3.36008 10.6671 2.40008C10.6671 1.38675 10.2938 1.33342 5.86714 1.33342H1.06714V9.54675Z" fill="#5D5D5D"/>
<path d="M43.734 3.14656C43.734 3.57323 43.3607 3.99989 42.934 4.21323C42.5074 4.37323 42.134 5.01323 42.134 5.59989C42.134 6.18656 42.5074 6.66656 42.934 6.66656C43.574 6.66656 43.734 7.57323 43.734 11.6799C43.734 16.3199 43.8407 16.7999 44.9074 17.5466C45.5474 18.0266 46.774 18.3999 47.574 18.3999C48.8007 18.3999 49.0674 18.1866 49.0674 17.0666C49.0674 16.2666 48.7474 15.7332 48.2674 15.7332C46.9874 15.7332 46.3474 13.7599 46.5074 10.2399C46.6674 7.25323 46.774 6.93323 47.894 6.77323C49.494 6.50656 49.334 4.26656 47.734 4.26656C47.0407 4.26656 46.6674 3.94656 46.7207 3.30656C46.774 2.66656 46.4007 2.39989 45.2807 2.39989C44.3207 2.39989 43.734 2.66656 43.734 3.14656Z" fill="#5D5D5D"/>
<path d="M81.6005 3.14661C81.6005 3.57328 81.2272 3.99995 80.8005 4.21328C80.3738 4.37328 80.0005 5.01328 80.0005 5.59995C80.0005 6.18662 80.3738 6.66662 80.8005 6.66662C81.4405 6.66662 81.6005 7.57328 81.6005 11.4666C81.6005 15.6266 81.7605 16.4266 82.7205 17.3866C84.2138 18.88 87.1472 18.6133 87.3605 17.0133C87.4672 16.16 87.1472 15.7866 86.1872 15.52C84.8538 15.2 84.8005 15.04 84.8005 10.9333C84.8005 7.03995 84.9072 6.66662 85.8672 6.66662C86.6138 6.66662 86.9338 6.29328 86.9338 5.54662C86.9338 4.90662 86.5072 4.31995 85.8672 4.15995C85.2805 3.99995 84.8005 3.51995 84.8005 3.14661C84.8005 2.66661 84.2138 2.39995 83.2005 2.39995C82.1872 2.39995 81.6005 2.66661 81.6005 3.14661Z" fill="#5D5D5D"/>
<path d="M22.9338 10.88V17.8667H24.5338H26.1338V13.6C26.1338 9.97336 26.2938 9.17336 27.2538 8.21336C27.8405 7.62669 28.6938 7.25336 29.1205 7.41336C29.6538 7.62669 29.8672 7.25336 29.8672 5.86669C29.8672 4.37335 29.6538 4.00002 28.8005 4.00002C28.2138 4.00002 27.3605 4.64002 26.8272 5.44002L25.9205 6.82669L25.6005 5.54669C25.3872 4.74669 24.8538 4.21336 24.1072 4.10669C22.9338 3.94669 22.9338 4.00002 22.9338 10.88Z" fill="#5D5D5D"/>
<path d="M32.8005 5.3332C31.4138 6.66653 31.0938 8.95986 32.0005 10.3999C32.2672 10.8265 33.4938 11.6799 34.7738 12.2665C36.5872 13.1199 37.0672 13.6532 37.0672 14.6665C37.0672 16.4265 35.0938 16.7999 33.9738 15.1999C32.7472 13.4399 30.6672 14.7732 31.8938 16.5865C33.0672 18.3999 36.3738 18.8799 38.2938 17.5465C41.3338 15.4132 40.8538 11.7332 37.2805 10.0799C35.0405 9.11986 34.0805 7.94653 34.5072 6.7732C34.8272 5.86653 36.5338 5.9732 37.3338 6.9332C37.7072 7.35986 38.2938 7.7332 38.7205 7.7332C40.0538 7.7332 40.0538 6.66653 38.7205 5.3332C36.9605 3.57319 34.5072 3.57319 32.8005 5.3332Z" fill="#5D5D5D"/>
<path d="M68.6405 4.37325C68.2138 4.74658 68.1605 17.5466 68.5338 17.9733C68.6938 18.1333 69.4405 18.1333 70.1338 17.9733C71.4138 17.7599 71.4672 17.5999 71.4672 13.0666C71.4672 7.46659 71.7338 6.66659 73.3872 6.66659C74.6672 6.66659 74.6672 6.71992 74.6672 12.2666V17.8666H76.2672H77.8672V11.8399C77.8672 6.61325 77.7072 5.65325 76.9072 4.90658C75.6805 3.78658 73.3872 3.73325 72.4805 4.85325C71.8938 5.59992 71.7872 5.59992 71.3605 4.85325C70.8805 3.99992 69.2805 3.67992 68.6405 4.37325Z" fill="#5D5D5D"/>
<path d="M91.5206 5.11999C90.7739 5.70666 90.1339 6.55999 90.1339 6.98666C90.1339 8 92.6406 7.94666 93.2273 6.87999C94.0273 5.43999 95.7339 6.18666 95.8939 8.05333C96.0539 9.6 95.9473 9.76 93.8673 10.08C90.9873 10.5067 89.6006 12 89.6006 14.56C89.6006 18.1333 92.3739 19.4667 95.1473 17.28C96.2673 16.3733 96.5339 16.32 96.5339 17.0133C96.5339 17.5467 97.0139 17.8667 97.8673 17.8667H99.2006V12.2667C99.2006 6.98666 99.0939 6.55999 97.8673 5.33333C96.2673 3.67999 93.4939 3.57333 91.5206 5.11999ZM96.0006 13.28C96.0006 15.2533 94.8806 16.5867 93.6006 16.0533C92.6406 15.68 92.5339 13.0133 93.4406 12.1067C93.8139 11.7333 94.5073 11.4667 95.0406 11.4667C95.7873 11.4667 96.0006 11.8933 96.0006 13.28Z" fill="#5D5D5D"/>
<path d="M102.721 4.37325C102.347 4.79992 102.294 17.5999 102.667 17.9733C102.827 18.1333 103.574 18.1333 104.267 17.9733C105.547 17.7599 105.601 17.5999 105.601 13.7599C105.601 9.17325 106.187 7.73325 108.001 7.73325C109.174 7.73325 109.334 7.51992 109.334 5.86659C109.334 4.37325 109.121 3.99992 108.321 3.99992C107.734 3.99992 106.774 4.63992 106.187 5.43992L105.121 6.93325L105.067 5.59992C105.067 4.63992 104.747 4.21325 104.054 4.15992C103.521 4.10658 102.881 4.21325 102.721 4.37325Z" fill="#5D5D5D"/>
<path d="M112.001 10.88V17.8667H113.601H115.254L115.094 11.04L114.934 4.26669L113.494 4.10669L112.001 3.94669V10.88Z" fill="#5D5D5D"/>
<path d="M119.734 5.17338C117.387 7.30672 117.014 14.4001 119.147 16.7467C121.494 19.3067 126.507 18.5067 127.787 15.4134C129.334 11.7867 128.321 5.81338 125.974 4.58671C124.107 3.62671 121.227 3.89338 119.734 5.17338ZM124.267 6.88005C125.174 8.00005 125.121 14.6134 124.161 15.5201C122.454 17.2801 121.067 15.3067 121.067 11.0934C121.067 6.98672 122.614 4.96005 124.267 6.88005Z" fill="#5D5D5D"/>
<path d="M16.9606 8.64007C17.2272 14.9867 17.4406 15.6267 17.4939 10.2401C17.5472 7.4134 17.4406 5.06673 17.2272 5.06673C16.9606 5.06673 16.8539 6.66673 16.9606 8.64007Z" fill="#5D5D5D"/>
<path d="M15.8939 9.33326C15.3606 10.4533 15.1472 16.2666 15.5739 16.2666C15.7872 16.2666 16.1072 15.7333 16.2672 15.0399C16.6939 13.3866 16.3206 8.31993 15.8939 9.33326Z" fill="#5D5D5D"/>
<path d="M13.494 16.7466C13.494 17.3332 13.7607 17.6532 13.974 17.5466C14.5607 17.1732 14.5073 15.7332 13.9207 15.7332C13.6007 15.7332 13.4407 16.2132 13.494 16.7466Z" fill="#5D5D5D"/>
<path d="M16.5338 16.5333C16.0005 17.1733 16.0005 17.3333 16.6938 17.3333C17.7072 17.3333 18.3472 16.4799 17.6538 16.0533C17.3872 15.8933 16.9072 16.1066 16.5338 16.5333Z" fill="#5D5D5D"/>
<path d="M1.60055 26.4C-0.372785 28.3734 0.533882 32.8 2.88055 32.8C4.16055 32.8 5.76055 31.4134 5.12055 30.8267C4.96055 30.6134 4.42722 30.9334 4.00055 31.52C3.20055 32.5334 3.20055 32.5334 2.40055 31.52C1.06722 29.8134 1.49388 26.4 2.98722 26.4C3.41388 26.4 3.89389 26.7734 4.05389 27.2C4.42722 28.0534 5.33389 28.32 5.33389 27.52C5.33389 26.88 3.78722 25.3334 3.14722 25.3334C2.88055 25.3334 2.18722 25.8134 1.60055 26.4Z" fill="#5D5D5D"/>
<path d="M27.3606 25.76L25.6006 25.92V29.3867V32.8H27.8939C29.3873 32.8 29.8673 32.64 29.3873 32.32C28.9606 32.0534 28.1606 31.8934 27.6273 32C26.9339 32.16 26.6673 31.8934 26.6673 30.88C26.6673 29.9734 26.9339 29.6 27.7339 29.6C28.3206 29.6 28.8006 29.3334 28.8006 29.0667C28.8006 28.7467 28.3206 28.5334 27.7339 28.5334C27.0406 28.5334 26.6673 28.16 26.6673 27.52C26.6673 26.72 27.0939 26.4 28.4273 26.2934C29.3339 26.1867 29.9206 26.0267 29.6006 25.8667C29.3339 25.7067 28.2673 25.6534 27.3606 25.76Z" fill="#5D5D5D"/>
<path d="M110.934 26.4C108.907 28.4267 110.134 32.8 112.801 32.8C114.294 32.8 115.201 31.4134 115.201 29.12C115.201 27.52 113.654 25.3334 112.534 25.3334C112.267 25.3334 111.521 25.8134 110.934 26.4ZM113.921 27.7867C114.401 29.5467 113.547 32 112.534 32C111.361 32 110.614 29.3867 111.361 27.7334C112.161 25.9734 113.494 26.0267 113.921 27.7867Z" fill="#5D5D5D"/>
<path d="M13.334 29.3334C13.334 31.3067 13.5473 32.8 13.8673 32.8C14.1873 32.8 14.4007 32.0534 14.4007 31.2C14.4007 30.2934 14.6673 29.6 14.9873 29.6C15.254 29.6 15.7873 30.2934 16.054 31.2C16.374 32.0534 16.854 32.8 17.1207 32.8C17.7607 32.8 17.7073 32.5867 17.014 30.9867C16.534 29.92 16.534 29.44 17.014 28.8534C17.3873 28.4267 17.5473 27.5734 17.334 26.9334C17.0673 26.1334 16.534 25.8667 15.1473 25.8667H13.334V29.3334ZM16.2673 27.7334C16.2673 28.32 15.8407 28.8534 15.3607 28.96C14.614 29.12 14.4007 28.8 14.4007 27.7334C14.4007 26.6667 14.614 26.3467 15.3607 26.5067C15.8407 26.6134 16.2673 27.1467 16.2673 27.7334Z" fill="#5D5D5D"/>
<path d="M37.334 29.3334V32.8H38.8807C41.5473 32.8 42.8273 30.08 41.494 27.2C41.014 26.1867 40.4807 25.8667 39.094 25.8667H37.334V29.3334ZM40.534 27.52C41.334 29.0134 40.694 31.5734 39.414 31.8934C38.5073 32.16 38.4007 31.8934 38.4007 29.28C38.4007 26.1867 39.414 25.3334 40.534 27.52Z" fill="#5D5D5D"/>
<path d="M50.134 29.3334C50.134 31.3067 50.3474 32.8 50.6674 32.8C50.9874 32.8 51.2007 31.3067 51.2007 29.3334C51.2007 27.36 50.9874 25.8667 50.6674 25.8667C50.3474 25.8667 50.134 27.36 50.134 29.3334Z" fill="#5D5D5D"/>
<path d="M58.8273 26.24C59.574 26.4534 59.734 27.0934 59.734 29.6534C59.734 31.4134 59.9473 32.8 60.2673 32.8C60.5873 32.8 60.8006 31.4134 60.8006 29.6534C60.8006 27.0934 60.9606 26.4534 61.7606 26.24C62.2406 26.08 61.6006 25.9734 60.2673 25.9734C58.934 25.9734 58.294 26.08 58.8273 26.24Z" fill="#5D5D5D"/>
<path d="M75.7339 27.9467C75.7339 31.0934 76.5339 32.8 78.0272 32.8C78.7206 32.8 79.5206 32.5334 79.8939 32.16C80.6406 31.4134 80.7472 25.8667 80.0006 25.8667C79.7339 25.8667 79.4672 27.1467 79.4672 28.7467C79.4672 30.3467 79.2006 31.84 78.9339 32C77.7606 32.6934 76.8006 31.0934 76.8006 28.48C76.8006 27.04 76.5872 25.8667 76.2672 25.8667C76.0006 25.8667 75.7339 26.8267 75.7339 27.9467Z" fill="#5D5D5D"/>
<path d="M88.0005 29.3334C88.0005 31.3067 88.2138 32.8 88.5338 32.8C88.8538 32.8 89.0672 31.52 89.1205 29.9734V27.2L90.5605 29.9734C91.3072 31.52 92.1605 32.8 92.3738 32.8C92.5872 32.8 92.7472 31.2 92.6938 29.1734C92.6405 25.6534 92.6405 25.6534 92.3205 28.2667L92.0005 30.9334L90.8272 28.3734C89.0672 24.64 88.0005 25.0134 88.0005 29.3334Z" fill="#5D5D5D"/>
<path d="M100.801 29.0133C100.801 30.7733 101.067 32.3733 101.334 32.5333C101.654 32.7467 101.867 31.5733 101.867 29.3866C101.867 27.4133 101.654 25.8666 101.334 25.8666C101.014 25.8666 100.801 27.2533 100.801 29.0133Z" fill="#5D5D5D"/>
<path d="M123.307 29.44L123.361 33.0667L123.734 30.1333L124.054 27.2L125.334 29.9733C126.027 31.52 126.827 32.8 127.041 32.8C127.254 32.8 127.414 31.2 127.361 29.1733C127.307 25.92 127.254 25.8133 126.987 28L126.667 30.4L125.441 28.1066C124.801 26.88 124.001 25.8666 123.734 25.8666C123.414 25.8666 123.254 27.4133 123.307 29.44Z" fill="#5D5D5D"/>
</svg>
