<svg width="96" height="96" viewBox="0 0 96 96" fill="none" xmlns="http://www.w3.org/2000/svg">
<path d="M31 15.5L34.4 19L23.2 30.3C17 36.5 12 42 12 42.6C12 43.9 16.2 48 17.5 48C18.1 48 23.5 43 29.7 36.8L41 25.6L44.5 29L48 32.4V22.2V12H37.8H27.6L31 15.5Z" fill="white"/>
<path d="M72 48V84H78H84V48V12H78H72V48Z" fill="white"/>
<path d="M52 64V84H58H64V64V44H58H52V64Z" fill="white"/>
<path d="M32 72V84H38H44V72V60H38H32V72Z" fill="white"/>
<path d="M12 76V84H18H24V76V68H18H12V76Z" fill="white"/>
</svg>
